<?xml version="1.0" encoding="UTF-8"?>
<svg width="1978px" height="1433px" viewBox="0 0 1978 1433" version="1.1" xmlns="http://www.w3.org/2000/svg" xmlns:xlink="http://www.w3.org/1999/xlink">
    <!-- Generator: Sketch 52.5 (67469) - http://www.bohemiancoding.com/sketch -->
    <title>formas empresa-team</title>
    <desc>Created with Sketch.</desc>
    <defs>
        <linearGradient x1="36.7711535%" y1="7.91262454%" x2="97.9402107%" y2="91.775655%" id="linearGradient-1">
            <stop stop-color="#F3F6F7" offset="0%"></stop>
            <stop stop-color="#D7D7FF" offset="100%"></stop>
        </linearGradient>
        <linearGradient x1="97.6732206%" y1="5.20744951%" x2="3.72264023%" y2="100%" id="linearGradient-2">
            <stop stop-color="#2D2BB0" offset="0%"></stop>
            <stop stop-color="#113255" offset="100%"></stop>
        </linearGradient>
        <path d="M1193.92776,14.4377011 C1040.07314,53.1966341 866.7339,167.177171 697.217138,177.630543 C527.700376,188.083916 382.492501,161.078676 324.836153,253.468143 C267.179805,345.857609 253.478373,393.650357 187.239352,393.650357 C159.371314,393.650357 95.1205398,418.134848 58.2189746,460.547547 C-18.5257993,548.753916 -7.42380744,674.610619 26.8562188,733.304017 C96.2375631,852.097008 170.542602,893.920169 335.067247,893.920169 C499.591891,893.920169 707.605001,733.847019 816.557614,852.097008 C925.510226,970.346996 925.510226,1144.86932 1151.10111,1245.14974 C1564.29321,1432.36196 1772.30598,1166.30906 1836.67518,1014.2347 C1901.04438,862.160349 1901.04438,539.791023 1789.3915,315.954556 C1659.4165,55.3867868 1405.46464,-38.8525012 1193.92776,14.4377011 Z" id="path-3"></path>
        <filter x="-4.0%" y="-5.7%" width="108.1%" height="111.6%" filterUnits="objectBoundingBox" id="filter-4">
            <feOffset dx="0" dy="2" in="SourceAlpha" result="shadowOffsetOuter1"></feOffset>
            <feGaussianBlur stdDeviation="25" in="shadowOffsetOuter1" result="shadowBlurOuter1"></feGaussianBlur>
            <feColorMatrix values="0 0 0 0 0.0431372549   0 0 0 0 0.133333333   0 0 0 0 0.223529412  0 0 0 0.422752491 0" type="matrix" in="shadowBlurOuter1"></feColorMatrix>
        </filter>
        <linearGradient x1="-6.31733401%" y1="81.4509002%" x2="104.342607%" y2="34.1617471%" id="linearGradient-5">
            <stop stop-color="#163164" offset="0%"></stop>
            <stop stop-color="#202095" offset="100%"></stop>
        </linearGradient>
        <path d="M238.990695,38.7912742 C160.664954,142.301103 205.156127,149.065775 67.0971511,180.277032 C-70.9618248,211.48829 23.7920837,518.614129 172.856159,460.965243 C321.920235,403.316358 236.056001,680.180794 406.304894,629.850662 C494.465123,603.788137 540.85495,425.87137 501.535726,213.910023 C472.111491,55.2903977 317.316435,-64.7185544 238.990695,38.7912742 Z" id="path-6"></path>
        <filter x="-9.6%" y="-7.8%" width="119.2%" height="115.6%" filterUnits="objectBoundingBox" id="filter-7">
            <feMorphology radius="1" operator="erode" in="SourceAlpha" result="shadowSpreadInner1"></feMorphology>
            <feGaussianBlur stdDeviation="49" in="shadowSpreadInner1" result="shadowBlurInner1"></feGaussianBlur>
            <feOffset dx="0" dy="0" in="shadowBlurInner1" result="shadowOffsetInner1"></feOffset>
            <feComposite in="shadowOffsetInner1" in2="SourceAlpha" operator="arithmetic" k2="-1" k3="1" result="shadowInnerInner1"></feComposite>
            <feColorMatrix values="0 0 0 0 0.031372549   0 0 0 0 0.0980392157   0 0 0 0 0.168627451  0 0 0 0.382699275 0" type="matrix" in="shadowInnerInner1"></feColorMatrix>
        </filter>
        <path d="M39.691907,0.611753968 C17.7700465,0.611753968 0.000744186047,18.2338104 0.000744186047,39.9698938 C0.000744186047,61.7078221 17.7700465,79.3280336 39.691907,79.3280336 C61.611907,79.3280336 79.3830697,61.7078221 79.3830697,39.9698938 C79.3830697,18.2338104 61.611907,0.611753968 39.691907,0.611753968 Z" id="path-8"></path>
    </defs>
    <g id="final-2" stroke="none" stroke-width="1" fill="none" fill-rule="evenodd">
        <g id="home" transform="translate(-267.000000, -2241.000000)">
            <g id="formas-empresa-team" transform="translate(316.000000, 2288.000000)">
                <path d="M522.889835,849.380348 C710.594142,787.877661 731.324165,751.2373 888.08003,1011.47024 C1044.8359,1271.70318 1397.40066,1381.67617 1647.0654,1272.75571 C1813.50855,1200.14208 1827.98196,1027.61233 1690.48562,755.166479 C1547.46502,605.986153 1359.3213,530.211908 1126.05446,527.843745 C776.154188,524.2915 564.582798,635.210713 460.285267,697.090124 C355.987736,758.969535 335.185528,910.883035 522.889835,849.380348 Z" id="Path-7" fill="url(#linearGradient-1)" transform="translate(1082.653303, 921.144546) rotate(11.000000) translate(-1082.653303, -921.144546) "></path>
                <g id="Path-3">
                    <use fill="black" fill-opacity="1" filter="url(#filter-4)" xlink:href="#path-3"></use>
                    <use fill="url(#linearGradient-2)" fill-rule="evenodd" xlink:href="#path-3"></use>
                </g>
                <g id="fondo-planeta" transform="translate(1314.000000, 463.000000)">
                    <g id="Path-5">
                        <use fill="url(#linearGradient-5)" fill-rule="evenodd" xlink:href="#path-6"></use>
                        <use fill="black" fill-opacity="1" filter="url(#filter-7)" xlink:href="#path-6"></use>
                    </g>
                    <g id="estrellas" transform="translate(58.000000, 122.000000)" fill-rule="nonzero">
                        <path d="M224.304315,273.11653 C223.739308,273.008697 223.15352,272.984013 222.579421,272.986611 C222.381994,272.98791 222.183267,272.986611 221.984541,272.986611 C221.965058,272.486425 221.933885,271.986238 221.887126,271.487351 C221.807895,270.65977 221.667617,269.264446 220.688272,269.000711 C220.542799,268.961735 220.145347,270.537647 220.115473,270.696148 C220.008966,271.259994 219.984287,271.844627 219.986885,272.420166 C219.988184,272.618942 219.988184,272.819016 219.986885,273.017792 C219.512799,273.03598 219.037414,273.06846 218.567225,273.134718 C217.745042,273.249046 216.268232,273.316604 216.000666,274.306583 C215.962999,274.449494 217.535925,274.848343 217.693088,274.876925 C218.449028,275.022434 219.241336,275.017237 220.016759,275.012041 C220.036242,275.487543 220.067415,275.961745 220.133657,276.434649 C220.247957,277.255734 220.316797,278.732907 221.305234,278.99924 C221.449408,279.039515 221.846861,277.466202 221.876735,277.307701 C222.020909,276.552874 222.015713,275.760371 222.011817,274.984758 C222.513179,274.966569 223.013242,274.93409 223.512007,274.887319 C224.339384,274.809368 225.734366,274.666457 225.999335,273.688171 C226.037002,273.543962 224.462777,273.145112 224.304315,273.11653" id="Fill-6" fill="#71CEFC"></path>
                        <path d="M73.393512,283.168547 C72.958512,283.085547 72.507512,283.066547 72.065512,283.068547 C71.913512,283.069547 71.760512,283.068547 71.607512,283.068547 C71.592512,282.683547 71.568512,282.298547 71.532512,281.914547 C71.471512,281.277547 71.363512,280.203547 70.609512,280.000547 C70.497512,279.970547 70.191512,281.183547 70.168512,281.305547 C70.086512,281.739547 70.067512,282.189547 70.069512,282.632547 C70.070512,282.785547 70.070512,282.939547 70.069512,283.092547 C69.704512,283.106547 69.338512,283.131547 68.976512,283.182547 C68.343512,283.270547 67.206512,283.322547 67.000512,284.084547 C66.971512,284.194547 68.182512,284.501547 68.303512,284.523547 C68.885512,284.635547 69.495512,284.631547 70.092512,284.627547 C70.107512,284.993547 70.131512,285.358547 70.182512,285.722547 C70.270512,286.354547 70.323512,287.491547 71.084512,287.696547 C71.195512,287.727547 71.501512,286.516547 71.524512,286.394547 C71.635512,285.813547 71.631512,285.203547 71.628512,284.606547 C72.014512,284.592547 72.399512,284.567547 72.783512,284.531547 C73.420512,284.471547 74.494512,284.361547 74.698512,283.608547 C74.727512,283.497547 73.515512,283.190547 73.393512,283.168547" id="Fill-6" fill="#71CEFC"></path>
                        <path d="M312.590268,260.75282 C311.937768,260.62832 311.261268,260.59982 310.598268,260.60282 C310.370268,260.60432 310.140768,260.60282 309.911268,260.60282 C309.888768,260.02532 309.852768,259.44782 309.798768,258.87182 C309.707268,257.91632 309.545268,256.30532 308.414268,256.00082 C308.246268,255.95582 307.787268,257.77532 307.752768,257.95832 C307.629768,258.60932 307.601268,259.28432 307.604268,259.94882 C307.605768,260.17832 307.605768,260.40932 307.604268,260.63882 C307.056768,260.65982 306.507768,260.69732 305.964768,260.77382 C305.015268,260.90582 303.309768,260.98382 303.000768,262.12682 C302.957268,262.29182 304.773768,262.75232 304.955268,262.78532 C305.828268,262.95332 306.743268,262.94732 307.638768,262.94132 C307.661268,263.49032 307.697268,264.03782 307.773768,264.58382 C307.905768,265.53182 307.985268,267.23732 309.126768,267.54482 C309.293268,267.59132 309.752268,265.77482 309.786768,265.59182 C309.953268,264.72032 309.947268,263.80532 309.942768,262.90982 C310.521768,262.88882 311.099268,262.85132 311.675268,262.79732 C312.630768,262.70732 314.241768,262.54232 314.547768,261.41282 C314.591268,261.24632 312.773268,260.78582 312.590268,260.75282" id="Fill-6" fill="#71CEFC"></path>
                        <path d="M257.393512,338.168547 C256.958512,338.085547 256.507512,338.066547 256.065512,338.068547 C255.913512,338.069547 255.760512,338.068547 255.607512,338.068547 C255.592512,337.683547 255.568512,337.298547 255.532512,336.914547 C255.471512,336.277547 255.363512,335.203547 254.609512,335.000547 C254.497512,334.970547 254.191512,336.183547 254.168512,336.305547 C254.086512,336.739547 254.067512,337.189547 254.069512,337.632547 C254.070512,337.785547 254.070512,337.939547 254.069512,338.092547 C253.704512,338.106547 253.338512,338.131547 252.976512,338.182547 C252.343512,338.270547 251.206512,338.322547 251.000512,339.084547 C250.971512,339.194547 252.182512,339.501547 252.303512,339.523547 C252.885512,339.635547 253.495512,339.631547 254.092512,339.627547 C254.107512,339.993547 254.131512,340.358547 254.182512,340.722547 C254.270512,341.354547 254.323512,342.491547 255.084512,342.696547 C255.195512,342.727547 255.501512,341.516547 255.524512,341.394547 C255.635512,340.813547 255.631512,340.203547 255.628512,339.606547 C256.014512,339.592547 256.399512,339.567547 256.783512,339.531547 C257.420512,339.471547 258.494512,339.361547 258.698512,338.608547 C258.727512,338.497547 257.515512,338.190547 257.393512,338.168547" id="Fill-6" fill="#71CEFC"></path>
                        <path d="M248.157919,401.06936 C246.124473,401.743799 246.989679,405.065345 249.051824,404.893992 C249.484004,404.857695 249.894239,404.66946 250.214997,404.381621 C250.292656,404.342792 250.371157,404.30312 250.442905,404.248253 C252.094816,402.971124 249.694187,400.559521 248.157919,401.06936" id="Fill-1" fill="#92CDFA"></path>
                        <path d="M292.157919,394.06936 C290.124473,394.743799 290.989679,398.065345 293.051824,397.893992 C293.484004,397.857695 293.894239,397.66946 294.214997,397.381621 C294.292656,397.342792 294.371157,397.30312 294.442905,397.248253 C296.094816,395.971124 293.694187,393.559521 292.157919,394.06936" id="Fill-1" fill="#92CDFA"></path>
                        <path d="M410.15775,312.069705 C408.124305,312.744144 408.98951,316.065691 411.051656,315.894337 C411.483836,315.85804 411.89407,315.669805 412.214829,315.381967 C412.292488,315.343137 412.370989,315.303465 412.442737,315.248599 C414.094648,313.971469 411.694018,311.559867 410.15775,312.069705" id="Fill-1" fill="#92CDFA"></path>
                        <path d="M367.15775,435.069705 C365.124305,435.744144 365.98951,439.065691 368.051656,438.894337 C368.483836,438.85804 368.89407,438.669805 369.214829,438.381967 C369.292488,438.343137 369.370989,438.303465 369.442737,438.248599 C371.094648,436.971469 368.694018,434.559867 367.15775,435.069705" id="Fill-1" fill="#92CDFA"></path>
                        <path d="M397.15775,148.069705 C395.124305,148.744144 395.98951,152.065691 398.051656,151.894337 C398.483836,151.85804 398.89407,151.669805 399.214829,151.381967 C399.292488,151.343137 399.370989,151.303465 399.442737,151.248599 C401.094648,149.971469 398.694018,147.559867 397.15775,148.069705" id="Fill-1" fill="#92CDFA"></path>
                        <path d="M244.15775,159.069705 C242.124305,159.744144 242.98951,163.065691 245.051656,162.894337 C245.483836,162.85804 245.89407,162.669805 246.214829,162.381967 C246.292488,162.343137 246.370989,162.303465 246.442737,162.248599 C248.094648,160.971469 245.694018,158.559867 244.15775,159.069705" id="Fill-1" fill="#92CDFA"></path>
                        <path d="M297.157919,0.06936 C295.124473,0.743798667 295.989679,4.06534533 298.051824,3.893992 C298.484004,3.85769467 298.894239,3.66946 299.214997,3.38162133 C299.292656,3.342792 299.371157,3.30312 299.442905,3.24825333 C301.094816,1.971124 298.694187,-0.440478667 297.157919,0.06936" id="Fill-1" fill="#92CDFA"></path>
                        <path d="M206.157919,6.06936 C204.124473,6.74379867 204.989679,10.0653453 207.051824,9.893992 C207.484004,9.85769467 207.894239,9.66946 208.214997,9.38162133 C208.292656,9.342792 208.371157,9.30312 208.442905,9.24825333 C210.094816,7.971124 207.694187,5.55952133 206.157919,6.06936" id="Fill-1" fill="#92CDFA"></path>
                        <path d="M90.1579187,176.06936 C88.1244733,176.743799 88.9896787,180.065345 91.051824,179.893992 C91.484004,179.857695 91.8942387,179.66946 92.2149973,179.381621 C92.292656,179.342792 92.3711573,179.30312 92.4429053,179.248253 C94.094816,177.971124 91.6941867,175.559521 90.1579187,176.06936" id="Fill-1" fill="#92CDFA"></path>
                        <path d="M29.1577505,166.069705 C27.1243051,166.744144 27.9895105,170.065691 30.0516558,169.894337 C30.4838358,169.85804 30.8940705,169.669805 31.2148291,169.381967 C31.2924878,169.343137 31.3709891,169.303465 31.4427371,169.248599 C33.0946478,167.971469 30.6940185,165.559867 29.1577505,166.069705" id="Fill-1" fill="#92CDFA"></path>
                        <path d="M158.15775,262.069705 C156.124305,262.744144 156.98951,266.065691 159.051656,265.894337 C159.483836,265.85804 159.89407,265.669805 160.214829,265.381967 C160.292488,265.343137 160.370989,265.303465 160.442737,265.248599 C162.094648,263.971469 159.694018,261.559867 158.15775,262.069705" id="Fill-1-Copy" fill="#92CDFA"></path>
                        <path d="M1.15791867,113.06936 C-0.875526667,113.743799 -0.0103213333,117.065345 2.051824,116.893992 C2.484004,116.857695 2.89423867,116.66946 3.21499733,116.381621 C3.292656,116.342792 3.37115733,116.30312 3.44290533,116.248253 C5.094816,114.971124 2.69418667,112.559521 1.15791867,113.06936" id="Fill-1" fill="#92CDFA"></path>
                    </g>
                    <g id="planeta-1" transform="translate(125.000000, 106.000000)">
                        <g id="Group-3" transform="translate(68.000000, 101.000000)">
                            <g id="Fill-1" fill="#0052AB" fill-rule="nonzero">
                                <path d="M39.691907,0.611753968 C17.7700465,0.611753968 0.000744186047,18.2338104 0.000744186047,39.9698938 C0.000744186047,61.7078221 17.7700465,79.3280336 39.691907,79.3280336 C61.611907,79.3280336 79.3830697,61.7078221 79.3830697,39.9698938 C79.3830697,18.2338104 61.611907,0.611753968 39.691907,0.611753968 Z" id="path-1"></path>
                            </g>
                            <g id="Path-2-Clipped">
                                <mask id="mask-9" fill="white">
                                    <use xlink:href="#path-8"></use>
                                </mask>
                                <g id="path-1"></g>
                                <path d="M0.738008272,51.261871 C0.738008272,50.4670412 2.358206,33.1640889 14.1570669,36.8132203 C25.9559277,40.4623519 31.2227353,47.86613 39.8643077,51.261871 C48.50588,54.657612 76.2869117,67.2046785 79.3075008,39.3571379 C81.321227,20.7921108 85.6497801,35.9922043 92.2931603,84.9574182 C33.8826763,92.1581246 4.51122042,95.1525997 4.17879251,93.9408437 C3.68015064,92.1232096 0.738008272,52.0567008 0.738008272,51.261871 Z" id="Path-2" fill="#04458F" fill-rule="nonzero" mask="url(#mask-9)"></path>
                            </g>
                        </g>
                        <path d="M93.2033466,144.554255 C88.7222942,146.034586 87.0229042,150.952389 88.6407531,155.295433 C90.6996652,160.817566 96.4390445,160.301945 100.069475,164 C96.1128802,163.092581 92.1136614,161.303617 88.5740378,159.57564 C86.4002269,158.516677 84.548874,157.213764 82.9495571,155.495028 C82.8976674,155.428496 82.8457776,155.367509 82.7975942,155.299129 C79.0985948,150.27968 76.8895731,142.547215 81.9877432,137.631259 C87.1100048,132.693127 94.7211224,133.718824 100.918244,135.592801 C109.159451,138.087741 117.763887,141.157441 126.455424,138.960046 C134.012799,137.047259 139.624307,130.656517 139.635426,123.0719 C139.592802,123.005368 139.559445,122.938837 139.516821,122.870457 C139.387096,122.665317 139.468638,122.486051 139.615041,122.38995 C139.609481,122.260583 139.596509,122.129367 139.587243,122 C140.221039,122.739241 140.767735,123.498812 141.219917,124.276864 C143.432645,129.190971 140.634304,135.006952 136.636939,138.320602 C131.303411,142.744962 124.03699,144.983015 117.232017,145.653877 C113.421825,146.029042 109.606074,145.853472 105.836653,145.202939 C101.689177,144.485875 97.3619411,143.181114 93.2033466,144.554255" id="Fill-4" fill="#003864" fill-rule="nonzero"></path>
                        <path d="M70.0183392,145.750987 C70.2790364,140.094057 73.0339212,134.839218 77.5508229,131.415918 C89.8904882,122.066398 103.751811,132.873034 117.065855,131.76083 C120.556609,131.471251 124.141657,130.193047 126.707952,127.752839 C129.893634,124.722407 130.202403,120.627726 130.302245,116.474024 C130.307792,116.291423 130.381748,116.130956 130.490834,116 C131.548414,116.162312 132.539433,116.630802 133.389935,117.322471 C135.353483,120.863816 135.52913,125.216719 133.872502,128.979398 C131.792471,133.703036 127.123958,136.270512 122.146676,136.877336 C108.978697,138.483852 94.823396,126.646169 82.5724787,135.11773 C75.5188643,139.998146 73.4499273,149.369799 77.3197084,156.915446 C77.5637654,157.391315 77.2679388,158.003672 76.6966238,157.999983 C71.1128975,157.952028 69.824203,149.978468 70.0183392,145.750987" id="Fill-6" fill="#003864" fill-rule="nonzero"></path>
                        <path d="M95.1972114,127.622978 C99.1098882,128.939771 103.711719,129.060336 107.79435,128.981216 C114.542083,128.851232 121.009672,127.265052 125.181949,121.381869 C128.491383,116.709986 120.931232,113.727893 117.255744,114.355206 C116.09408,114.554891 114.74939,115.033383 114.050897,116.06195 C113.085335,117.484238 114.34785,119.547025 112.695001,120.575593 C110.930094,121.675746 106.584128,121.104947 105.039601,119.906835 C102.910507,118.258489 103.717322,116.68738 103.177578,114.583149 C102.512703,111.991007 98.7270249,113.160862 97.1544836,114.044375 C94.4034703,115.590995 91.3928569,119.068534 91.0305374,122.316246 C90.7205114,125.089235 92.8178557,126.82047 95.1972114,127.622978" id="Fill-8" fill="#003864" fill-rule="nonzero"></path>
                        <path d="M107.663658,105.689735 C106.741418,106.020961 106.037162,106.622657 105.301233,107.28707 C104.665912,107.865247 104.082758,108.059279 103.536866,107.984802 C102.769264,107.682974 102.126491,106.991122 102.016567,106.113077 C101.861929,104.892047 102.813979,104.160996 103.864774,104.041441 C105.789368,103.82585 108.086584,104.505942 110,104.827369 C109.923612,105.344788 108.207687,105.493742 107.663658,105.689735" id="Fill-10" fill="#003864" fill-rule="nonzero"></path>
                        <path d="M75.2577881,129.518738 C74.0403585,130.625131 72.9040908,131.844762 71.8434513,133.251886 C71.8323838,133.315002 71.8194716,133.381831 71.8065595,133.446804 C71.6442356,133.645435 71.4708441,133.834784 71.2753175,134 C70.8012578,132.392389 71.0539666,130.513749 71.1923109,128.794757 C72.8395301,123.372319 76.9234532,118.389839 80.8911672,114.946285 C83.8646468,112.367796 87.1904433,110.049198 90.6674963,108.211398 C92.4087895,107.290642 96.5148478,106.312338 98.2284723,107.66934 C100.200339,109.236111 97.9241148,110.125309 96.6070772,110.882705 C94.325319,112.195154 92.253844,113.873307 90.5383749,115.881892 C89.2692967,117.374408 88.5775754,119.184363 87.2310244,120.643465 C85.7037035,122.297484 83.7963971,123.572806 81.8872459,124.736746 C79.4486975,126.221837 77.2462566,127.714353 75.2577881,129.518738" id="Fill-12" fill="#003864" fill-rule="nonzero"></path>
                        <path d="M104.396508,110.275422 C111.519579,112.170493 119.743837,113.811846 127.109388,112.56473 C127.67639,112.828205 128.334549,112.020214 127.805834,111.491312 C121.46125,105.164001 111.576097,104.18036 104.263417,109.188343 C103.875085,109.455721 103.913371,110.148564 104.396508,110.275422" id="Fill-14" fill="#003864" fill-rule="nonzero"></path>
                        <path d="M113.355433,157.552732 C113.424405,157.552732 113.497105,157.541581 113.569805,157.50255 C119.175161,154.508367 125.542936,153.79467 131.317926,151.272568 C135.266095,149.5478 137.642826,146.873294 139.173255,143 C139.406267,143.184 139.643008,143.356849 139.887206,143.514829 C142.754196,148.295113 142.573378,154.164529 140.129539,159.115803 C137.887024,163.661906 133.148475,169.090837 127.848831,169.904898 C124.905413,170.360251 121.954538,169.103847 119.39699,167.765665 C116.979248,166.498109 114.039559,164.756613 112.647074,162.308855 C111.463369,160.227238 112.024464,158.703197 113.355433,157.552732" id="Fill-16" fill="#003864" fill-rule="nonzero"></path>
                        <ellipse id="Oval" stroke="#2D2DB0" transform="translate(181.500000, 88.000000) rotate(-14.000000) translate(-181.500000, -88.000000) " cx="181.5" cy="88" rx="175.5" ry="46"></ellipse>
                    </g>
                </g>
            </g>
        </g>
    </g>
</svg>